<svg width="580" height="205" viewBox="0 0 580 205" fill="none" xmlns="http://www.w3.org/2000/svg">
<g filter="url(#filter0_d_194_124)">
<path d="M55.7064 107.928V95.688H68.9544C73.0824 95.688 76.1064 94.968 78.0264 93.528C80.0424 92.088 81.0504 89.64 81.0504 86.184H55.7064V73.944H81.0504C81.0504 70.488 80.0424 68.04 78.0264 66.6C76.1064 65.16 73.0824 64.44 68.9544 64.44H55.7064V52.2H105.242V64.44H93.1464C94.9704 67.128 96.1704 70.296 96.7464 73.944H105.242V86.184H96.7464C96.3624 90.6 95.0184 94.488 92.7144 97.848C90.5064 101.112 87.7704 103.608 84.5064 105.336C81.2424 107.064 77.9784 107.928 74.7144 107.928L106.106 153H86.9544L55.7064 107.928Z" fill="white"/>
<path d="M133.091 76.104H116.531V64.872C121.043 64.872 124.643 64.488 127.331 63.72C130.115 62.952 132.323 61.704 133.955 59.976C135.587 58.152 137.027 55.56 138.275 52.2H148.931V153H133.091V76.104ZM169.435 153H164.251V137.736H179.515V151.416L171.595 170.28H164.251L169.435 153ZM186.783 142.056C186.783 134.856 187.935 128.712 190.239 123.624C192.543 118.44 196.671 112.728 202.623 106.488C208.479 100.248 212.511 94.92 214.719 90.504C217.023 86.088 218.175 81.48 218.175 76.68C218.175 72.36 217.455 69.384 216.015 67.752C214.671 66.024 212.655 65.16 209.967 65.16C204.495 65.16 201.759 68.472 201.759 75.096V85.896H186.783V76.104C186.783 67.944 188.799 61.704 192.831 57.384C196.863 52.968 202.719 50.76 210.399 50.76C218.079 50.76 223.935 52.968 227.967 57.384C231.999 61.704 234.015 67.944 234.015 76.104C234.015 82.248 232.527 88.248 229.551 94.104C226.671 99.96 221.631 106.68 214.431 114.264C209.727 119.256 206.559 123.336 204.927 126.504C203.295 129.576 202.479 132.888 202.479 136.44V138.6H232.575V153H186.783V142.056ZM263.304 154.44C255.528 154.44 249.576 152.232 245.448 147.816C241.32 143.4 239.256 137.16 239.256 129.096V76.104C239.256 68.04 241.32 61.8 245.448 57.384C249.576 52.968 255.528 50.76 263.304 50.76C271.08 50.76 277.032 52.968 281.16 57.384C285.288 61.8 287.352 68.04 287.352 76.104V129.096C287.352 137.16 285.288 143.4 281.16 147.816C277.032 152.232 271.08 154.44 263.304 154.44ZM263.304 140.04C268.776 140.04 271.512 136.728 271.512 130.104V75.096C271.512 68.472 268.776 65.16 263.304 65.16C257.832 65.16 255.096 68.472 255.096 75.096V130.104C255.096 136.728 257.832 140.04 263.304 140.04ZM298.928 153H293.744V137.736H309.008V151.416L301.088 170.28H293.744L298.928 153ZM339.461 154.44C331.685 154.44 325.733 152.232 321.605 147.816C317.477 143.4 315.413 137.16 315.413 129.096V76.104C315.413 68.04 317.477 61.8 321.605 57.384C325.733 52.968 331.685 50.76 339.461 50.76C347.237 50.76 353.189 52.968 357.317 57.384C361.445 61.8 363.509 68.04 363.509 76.104V129.096C363.509 137.16 361.445 143.4 357.317 147.816C353.189 152.232 347.237 154.44 339.461 154.44ZM339.461 140.04C344.933 140.04 347.669 136.728 347.669 130.104V75.096C347.669 68.472 344.933 65.16 339.461 65.16C333.989 65.16 331.253 68.472 331.253 75.096V130.104C331.253 136.728 333.989 140.04 339.461 140.04ZM392.797 154.44C385.021 154.44 379.069 152.232 374.941 147.816C370.813 143.4 368.749 137.16 368.749 129.096V76.104C368.749 68.04 370.813 61.8 374.941 57.384C379.069 52.968 385.021 50.76 392.797 50.76C400.573 50.76 406.525 52.968 410.653 57.384C414.781 61.8 416.845 68.04 416.845 76.104V129.096C416.845 137.16 414.781 143.4 410.653 147.816C406.525 152.232 400.573 154.44 392.797 154.44ZM392.797 140.04C398.269 140.04 401.005 136.728 401.005 130.104V75.096C401.005 68.472 398.269 65.16 392.797 65.16C387.325 65.16 384.589 68.472 384.589 75.096V130.104C384.589 136.728 387.325 140.04 392.797 140.04ZM446.133 154.44C438.357 154.44 432.405 152.232 428.277 147.816C424.149 143.4 422.085 137.16 422.085 129.096V76.104C422.085 68.04 424.149 61.8 428.277 57.384C432.405 52.968 438.357 50.76 446.133 50.76C453.909 50.76 459.861 52.968 463.989 57.384C468.117 61.8 470.181 68.04 470.181 76.104V129.096C470.181 137.16 468.117 143.4 463.989 147.816C459.861 152.232 453.909 154.44 446.133 154.44ZM446.133 140.04C451.605 140.04 454.341 136.728 454.341 130.104V75.096C454.341 68.472 451.605 65.16 446.133 65.16C440.661 65.16 437.925 68.472 437.925 75.096V130.104C437.925 136.728 440.661 140.04 446.133 140.04ZM493.853 108.216H474.557V96.984H493.853V77.544H505.085V96.984H524.381V108.216H505.085V127.944H493.853V108.216Z" fill="#FF0004"/>
</g>
<rect x="2.5" y="2.5" width="575" height="199.625" rx="25.5" stroke="url(#paint0_linear_194_124)" stroke-width="5"/>
<rect x="11.4883" y="11.4873" width="557.718" height="182.342" rx="11.5" stroke="url(#paint1_linear_194_124)" stroke-width="5"/>
<path d="M470.632 54.5793L474.097 50.9185L469.096 49.8398L470.011 47.0615L474.685 49.2842L474.031 44.1198H476.973L476.319 49.2842L480.993 47.0615L481.909 49.8398L476.908 50.9185L480.372 54.5793L478.019 56.3117L475.502 51.8991L472.985 56.3117L470.632 54.5793Z" fill="white"/>
<defs>
<filter id="filter0_d_194_124" x="33.5061" y="28.5598" width="513.076" height="163.921" filterUnits="userSpaceOnUse" color-interpolation-filters="sRGB">
<feFlood flood-opacity="0" result="BackgroundImageFix"/>
<feColorMatrix in="SourceAlpha" type="matrix" values="0 0 0 0 0 0 0 0 0 0 0 0 0 0 0 0 0 0 127 0" result="hardAlpha"/>
<feOffset/>
<feGaussianBlur stdDeviation="11.1"/>
<feComposite in2="hardAlpha" operator="out"/>
<feColorMatrix type="matrix" values="0 0 0 0 1 0 0 0 0 0 0 0 0 0 0 0 0 0 0.8 0"/>
<feBlend mode="normal" in2="BackgroundImageFix" result="effect1_dropShadow_194_124"/>
<feBlend mode="normal" in="SourceGraphic" in2="effect1_dropShadow_194_124" result="shape"/>
</filter>
<linearGradient id="paint0_linear_194_124" x1="574.815" y1="3.17517" x2="27.7188" y2="188.873" gradientUnits="userSpaceOnUse">
<stop stop-color="#957B31"/>
<stop offset="1" stop-color="#FBCF52"/>
</linearGradient>
<linearGradient id="paint1_linear_194_124" x1="566.676" y1="11.8943" x2="42.5398" y2="200.42" gradientUnits="userSpaceOnUse">
<stop stop-color="#957B31"/>
<stop offset="1" stop-color="#FBCF52"/>
</linearGradient>
</defs>
</svg>
